# xmcd
#
# Track frame offsets:
#	150
#	15338
#	31168
#	48621
#	63735
#	77729
#	95003
#	109068
#	125986
#	138157
#	156759
#	168360
#
# Disc length: 2521 seconds
#
# Revision: 1
# Processed by: cddbd v1.5.2PL0 Copyright (c) Steve Scherf et al.
# Submitted via: audiograbber 1.83.01
#
DISCID=9d09d70c
DTITLE=Mahalia Jackson - Newport 1958
DYEAR=1994
DGENRE=Blues
TTITLE0=An Evening Prayer
TTITLE1=I'm on My Way
TTITLE2=A City Called Heaven
TTITLE3=I Don't Cost Very Much
TTITLE4=Walk over God's Heaven
TTITLE5=The Lord's Prayer
TTITLE6=Didn't It Rain
TTITLE7=God Is Real
TTITLE8=He's Got the Whole World in His Hands
TTITLE9=I'm Going to Live the Life I Sing About in My Song
TTITLE10=Joshua Fit the Battle of Jericho
TTITLE11=His Eye Is on the Sparrow
EXTD=
EXTT0=
EXTT1=
EXTT2=
EXTT3=
EXTT4=
EXTT5=
EXTT6=
EXTT7=
EXTT8=
EXTT9=
EXTT10=
EXTT11=
PLAYORDER=
